<svg width="27" height="27" viewBox="0 0 27 27" fill="none" xmlns="http://www.w3.org/2000/svg">
<g filter="url(#filter0_d)">
<circle cx="13.0419" cy="12.7834" r="8.10833" fill="white"/>
</g>
<path d="M13.5102 16.675H12.5685V11.1673H13.5102V16.675ZM12.4922 9.70638C12.4922 9.55367 12.538 9.42472 12.6296 9.31952C12.7246 9.21432 12.8638 9.16172 13.047 9.16172C13.2303 9.16172 13.3694 9.21432 13.4644 9.31952C13.5594 9.42472 13.607 9.55367 13.607 9.70638C13.607 9.85909 13.5594 9.98635 13.4644 10.0882C13.3694 10.19 13.2303 10.2409 13.047 10.2409C12.8638 10.2409 12.7246 10.19 12.6296 10.0882C12.538 9.98635 12.4922 9.85909 12.4922 9.70638Z" fill="black"/>
<defs>
<filter id="filter0_d" x="0.879427" y="0.620882" width="25.4833" height="25.4833" filterUnits="userSpaceOnUse" color-interpolation-filters="sRGB">
<feFlood flood-opacity="0" result="BackgroundImageFix"/>
<feColorMatrix in="SourceAlpha" type="matrix" values="0 0 0 0 0 0 0 0 0 0 0 0 0 0 0 0 0 0 127 0"/>
<feOffset dx="0.579167" dy="0.579167"/>
<feGaussianBlur stdDeviation="2.31667"/>
<feColorMatrix type="matrix" values="0 0 0 0 0.339444 0 0 0 0 0.518793 0 0 0 0 0.783333 0 0 0 1 0"/>
<feBlend mode="normal" in2="BackgroundImageFix" result="effect1_dropShadow"/>
<feBlend mode="normal" in="SourceGraphic" in2="effect1_dropShadow" result="shape"/>
</filter>
</defs>
</svg>
